<svg width="60" height="60" viewBox="0 0 60 60" fill="none" xmlns="http://www.w3.org/2000/svg">
<path d="M22.31 26.15C21.06 27.15 19.23 26.99 19.23 25.04C19.23 23.09 21.65 21.62 23.44 19.15C25.24 16.68 25.93 14.91 26.43 13.08C27.38 9.66998 26.21 6.74998 24.02 5.11998C21.83 3.49998 18.61 3.14998 15.42 4.87998C13.15 6.11998 11.47 8.16998 10.22 10.51C8.96002 12.85 8.14001 15.47 7.60001 17.86C6.98001 20.57 6.59001 23.42 6.46001 26.31C6.32001 29.2 6.46001 32.12 6.90001 34.99C7.35001 37.86 8.10001 40.66 9.21001 43.3C10.31 45.94 11.77 48.41 13.63 50.62C15.43 52.75 17.63 54.75 20.32 55.61C21.34 55.94 23.51 56.38 24.35 55.49C26.96 52.73 25.53 48.3 24.94 46.46C25.24 46.29 25.53 46.11 25.83 45.94C28.01 48.79 30.77 51.24 33.89 53.02C37.02 54.8 40.5 55.91 44.14 56.08C46.73 56.2 49.22 55.56 51.02 54.18C52.82 52.79 53.94 50.66 53.79 47.8C53.66 45.37 52.75 43.12 51.51 41.03C50.27 38.94 48.69 37.01 47.2 35.23C44.57 32.08 41.53 28.95 38.92 25.57C36.32 22.18 34.15 18.54 33.27 14.37C32.85 12.39 32.82 10.31 33.39 8.33998C34.16 5.69998 36.01 3.68998 38.3 2.56998C40.6 1.43998 43.33 1.19998 45.86 2.08998C48.84 3.13998 50.99 5.17998 52.37 7.70998C53.75 10.24 54.38 13.25 54.31 16.24C54.26 18.56 53.94 20.91 53.36 23.22C52.77 25.53 51.94 27.8 50.86 29.94C49.78 32.09 48.47 34.11 46.95 35.92C45.42 37.73 43.68 39.34 41.74 40.67C38.41 42.94 33.63 44.65 30.2 41.68C28.91 40.55 28.32 38.76 28.18 37.07C26.84 39.04 25.27 40.8 23.04 41.79C19.33 43.44 14.18 40.76 13.09 37.77C12.01 34.79 13.13 32.48 14.35 31.35C15.57 30.21 17.75 29.77 19.95 30.87C17.31 31.64 16.3 36 17.78 38.69C19.21 41.3 22.8 40.98 24.93 39.28C27.63 37.12 29 32.81 30.11 29.61C30.43 29.74 30.74 29.86 31.06 29.99C30.46 32.25 30.93 35.66 31.56 37.16C32.32 39.01 34.18 40.35 36.47 40.34C39.33 40.34 41.7 39.02 43.32 37.81C46.6 35.36 48.94 31.27 50.22 26.82C51.5 22.37 51.74 17.56 50.82 13.66C49.93 9.85998 47.75 6.83998 44.3 4.97998C43.25 4.41998 42.11 3.79998 40.9 3.75998C39.68 3.70998 38.36 4.05998 37.39 4.80998C34.04 7.40998 36.13 12.53 37.51 15.67C39.03 19.12 41.21 22.16 43.58 25.06C45.96 27.96 48.54 30.72 50.88 33.61C52.37 35.45 53.84 37.45 54.9 39.61C55.97 41.77 56.64 44.09 56.53 46.57C56.39 49.69 54.91 52.37 52.72 54.38C50.54 56.4 47.66 57.74 44.73 58.19C41.57 58.66 38.19 58.27 35.04 57.19C31.89 56.12 28.96 54.36 26.72 52.12C26.42 56.84 23.64 58.49 20.35 58.32C17.05 58.16 13.25 56.17 10.92 53.63C8.79001 51.31 7.16001 48.53 5.98001 45.5C4.80001 42.47 4.06001 39.18 3.72001 35.82C3.37001 32.47 3.42001 29.04 3.80001 25.75C4.17001 22.45 4.88001 19.28 5.87001 16.43C6.84001 13.63 8.29001 10.81 10.2 8.38998C12.11 5.95998 14.47 3.91998 17.25 2.66998C20.45 1.22998 23.73 1.30998 26.07 2.69998C28.4 4.09998 29.79 6.79998 29.2 10.64C28.89 12.62 27.65 14.75 26.18 16.79C24.71 18.83 23.02 20.79 21.83 22.45C21.35 23.12 20.11 25.51 22.31 26.15Z" fill="black"/>
</svg>
